<svg width="2105" height="2105" viewBox="0 0 2105 2105" fill="none" xmlns="http://www.w3.org/2000/svg">
<path d="M997.271 1311.86C1079.1 1327.87 1134.16 1277.47 1134.16 1277.47C1236.99 1380.16 1340.88 1289.58 1340.88 1289.58C1515.89 1374.44 1530.07 1184.95 1530.07 1184.95C1642.2 1178.53 1623.89 1062.67 1623.89 1062.67C1623.89 1062.67 1736.41 1023.45 1736.78 892.216C1737.22 737.497 1603.61 716.721 1603.61 716.721C1629.14 610.844 1525.31 617.946 1525.31 617.946C1525.31 617.946 1564.77 527.146 1484.99 459.112C1405.2 391.077 1325.7 432.465 1325.7 432.465C1295.55 337.085 1192.3 315.075 1192.3 315.075C1192.3 315.075 1088.37 296.547 1024.49 373.532C1024.49 373.532 966.453 305.233 866.91 338.18C767.367 371.128 769.694 470.103 769.694 470.103C769.694 470.103 676.2 424.394 659.95 532.087C659.95 532.087 528.359 500.974 470.451 644.448C421.331 766.146 510.774 844.877 510.774 844.877C510.774 844.877 450.151 945.3 551.592 993.507C551.592 993.507 493.309 1174.36 687.4 1161.72C687.4 1161.72 749.491 1284.77 883.443 1228.42C883.442 1228.42 915.441 1295.85 997.271 1311.86Z" fill="#16B768"/>
<g opacity="0.25">
<path d="M1736.78 892.216C1736.99 819.353 1707.46 776.211 1676.16 750.941C1678.21 762.213 1679.36 774.5 1679.32 787.983C1679 903.678 1579.8 938.25 1579.8 938.25C1579.8 938.25 1595.94 1040.39 1497.09 1046.05C1497.09 1046.05 1486.13 1192.2 1358.42 1149.82C1364.02 1147.91 1369.7 1145.78 1375.52 1143.31C1375.52 1143.31 1228.11 1114.46 1292.12 999.843C1292.12 999.843 1237.8 1046.46 1134.83 1049.21C1134.83 1049.21 1183.52 1158.19 1291.33 1160.98C1256.21 1175.03 1201.98 1181.45 1148.06 1127.61C1148.06 1127.61 1099.53 1172.04 1027.39 1157.93C955.25 1143.81 927.04 1084.37 927.04 1084.37C856.812 1113.92 808.995 1087.53 781.766 1061.28C882.674 1099.33 968.847 1016.74 968.847 1016.74C874.502 975.378 841.762 911.728 841.762 911.728C857.847 1042.02 710.437 1013.18 710.437 1013.18C714.9 1017.67 719.364 1021.78 723.827 1025.66C589.56 1016.78 634.487 877.28 634.487 877.28C545.06 834.782 598.504 746.251 598.504 746.251C598.504 746.251 519.652 676.844 562.955 569.558C568.002 557.055 573.701 546.109 579.843 536.439C541.329 548.05 497.721 576.882 470.45 644.449C421.331 766.147 510.774 844.878 510.774 844.878C510.774 844.878 450.151 945.302 551.592 993.508C551.592 993.508 493.308 1174.36 687.4 1161.72C687.4 1161.72 749.491 1284.78 883.443 1228.42C883.443 1228.42 915.442 1295.85 997.272 1311.86C1079.1 1327.87 1134.16 1277.47 1134.16 1277.47C1236.99 1380.16 1340.88 1289.58 1340.88 1289.58C1515.89 1374.44 1530.07 1184.95 1530.07 1184.95C1642.2 1178.53 1623.9 1062.67 1623.9 1062.67C1623.9 1062.67 1736.41 1023.45 1736.78 892.216Z" fill="#390175"/>
</g>
<g opacity="0.6">
<path d="M543.849 1037.48C542.398 1058.92 544.162 1084.87 555.609 1107.59C555.264 1075.58 563.771 1049.06 563.771 1049.06C556.232 1045.47 549.689 1041.57 543.849 1037.48Z" fill="white"/>
</g>
<g opacity="0.6">
<path d="M482.629 699.996C522.621 600.912 597.756 585.095 640.42 584.793C658.095 584.667 673.394 573.724 680.083 557.362C694.714 521.573 722.199 514.701 744.924 516.206C764.447 517.499 782.576 504.778 788.199 486.038C797.619 454.635 821.022 412.948 879.089 393.729C940.363 373.449 985.912 391.53 1011.88 408.431C1026.67 418.06 1046.15 417.224 1059.96 406.232C1122.97 356.094 1204.48 370.624 1204.48 370.624C1204.48 370.624 1285.45 387.884 1324.92 458.074C1333.57 473.461 1351.3 481.575 1368.63 478.232C1399.05 472.364 1448.06 472.783 1497.17 514.661C1515.43 530.232 1527.39 546.993 1535.06 563.587C1534.86 532.451 1524.69 492.967 1484.99 459.113C1405.2 391.079 1325.7 432.466 1325.7 432.466C1295.55 337.086 1192.3 315.076 1192.3 315.076C1192.3 315.076 1088.37 296.547 1024.49 373.532C1024.49 373.532 966.453 305.233 866.909 338.18C767.365 371.128 769.693 470.104 769.693 470.104C769.693 470.104 676.199 424.394 659.948 532.088C659.948 532.088 528.357 500.975 470.449 644.448C448.022 700.014 454.505 746.58 468.148 780.827C466.952 756.776 470.65 729.676 482.629 699.996Z" fill="white"/>
</g>
<path d="M637.143 773.258C626.741 746.976 622.792 716.425 635.464 690.103C654.313 653.413 694.805 645.525 728.726 663.067C722.61 660.568 718.882 666.32 719.172 669.259C719.043 667.944 718.948 666.487 718.871 665.173C715.726 603.579 762.747 580.61 817.309 594.313C825.533 596.41 823.836 608.453 815.372 608.191C797.291 607.862 779.355 608.136 763.886 616.513C749.672 624.433 743.977 638.619 743.386 655.3C743.159 659.977 743.633 664.755 743.879 669.448C743.881 674.634 741.316 679.918 737.273 683.131C732.145 687.55 723.804 688.462 717.653 685.093C709.869 681.082 700.789 678.216 692.216 678.161C676.721 677.627 662.191 686.874 654.393 700.171C646.035 714.294 644.795 733.941 646.565 750.842C647.185 756.901 648.19 763.415 649.578 769.23C651.352 776.998 640.286 780.623 637.143 773.258Z" fill="#390175"/>
<path d="M1058.27 644.764C1096.97 631.547 1141.59 636.547 1175.59 660.313C1205.56 681.149 1224.68 716.436 1230.8 751.59C1231.85 757.558 1227.87 763.251 1221.9 764.306C1216.56 765.253 1211.42 762.144 1209.66 757.193C1203.77 741.137 1196.96 725.875 1188.21 712.184C1186.5 709.298 1183.2 705.046 1181.27 702.246C1163.78 679.559 1139.31 664.359 1111.05 657.639C1094.56 653.673 1076.88 652.107 1059.87 652.793C1055.28 652.987 1053.9 646.362 1058.27 644.764Z" fill="#390175"/>
<path d="M1145.46 783.782C1160.95 761.892 1184.65 746.19 1211.09 740.776C1256.19 731.142 1301.43 758.865 1324.05 796.521C1328.31 803.466 1319.6 811.224 1313.22 806.254C1289.9 788.099 1265.12 770.454 1236.06 767.484C1209.8 764.421 1182.85 775.743 1161.24 790.684C1159.36 791.92 1157.66 793.236 1155.99 794.323C1149.16 798.943 1140.85 790.519 1145.46 783.782Z" fill="#390175"/>
<path d="M1482.62 750.856C1506 750.9 1530.93 762.454 1539.91 785.304C1548.72 807.123 1543.66 831.784 1536.63 853.028L1531.68 837.65C1556.71 856.008 1571.99 889.374 1555.96 918.66C1551.43 927.417 1545.38 934.765 1538.82 941.128C1535.95 943.903 1531.38 943.833 1528.61 940.97C1526 938.283 1525.91 934.083 1528.28 931.289C1534.69 923.557 1539.53 915.546 1542.04 906.374C1547.37 887.46 1534.44 869.268 1518.8 859.494C1518.49 859.313 1518.01 859.016 1517.97 859.023L1513.03 843.644C1517.03 834.965 1520.35 826.087 1522.29 817.205C1529.49 786.235 1512.13 766.865 1481.92 762.883C1474.48 761.925 1475.09 750.957 1482.62 750.856Z" fill="#390175"/>
<path d="M1241.29 1342.93C1209.19 1342.93 1171.22 1332.7 1133.08 1299.07C1111.04 1314.27 1060.79 1341.09 994.106 1328.03C927.418 1314.99 890.976 1271.22 876.296 1248.82C806.95 1273.06 756.327 1252.2 725.426 1229.49C701.401 1211.83 685.861 1190.68 678.235 1178.68C619.748 1180.61 577.302 1165.16 551.994 1132.69C518.111 1089.22 526.357 1028.75 532.343 1002C505.733 986.536 488.38 965.792 480.685 940.195C469.52 903.055 482.369 866.139 490.7 847.949C481.846 838.153 468.23 820.88 457.245 797.249C441.07 762.453 427.579 706.627 455.165 638.282C487.666 557.755 542.551 528.69 582.87 518.488C608.801 511.928 631.993 512.187 646.829 513.549C654.153 484.183 668.453 463.766 689.462 452.744C712.26 440.786 737.445 443.269 754.924 447.63C761.575 406.115 788.812 346.669 861.73 322.534C943.177 295.572 999.419 329.795 1023.68 350.039C1092.85 281.592 1190.82 298.071 1195.19 298.85C1195.37 298.882 1195.55 298.917 1195.74 298.956C1200.08 299.883 1297.03 321.546 1335.3 411.011C1365.41 401.405 1430.39 390.901 1495.68 446.571C1554.13 496.408 1556.95 561.736 1547.46 602.697C1565.3 605.242 1589.56 612.435 1606.17 632.105C1621.48 650.232 1627.03 674.533 1622.74 704.494C1637 708.826 1658.58 717.323 1680.12 733.174C1713.63 757.82 1753.51 805.427 1753.27 892.263C1753.06 965.968 1719.52 1012.59 1691.43 1038.73C1672.34 1056.47 1653.22 1067.34 1641.33 1073.08C1642.19 1093.07 1640.18 1132.1 1615.84 1162.29C1599.06 1183.11 1575.17 1195.78 1544.7 1200.07C1540.16 1227.11 1525.01 1286.22 1477.24 1313.72C1441.56 1334.26 1396.43 1332.57 1342.97 1308.74C1331.39 1316.98 1309.02 1330.71 1280.12 1338.02C1268.67 1340.91 1255.56 1342.93 1241.29 1342.93ZM1134.17 1261.01C1138.39 1261.01 1142.6 1262.61 1145.8 1265.81C1236.21 1356.09 1326.29 1280.39 1330.08 1277.13C1335.06 1272.83 1342.16 1271.88 1348.07 1274.75C1395.12 1297.56 1433.01 1301.08 1460.69 1285.21C1507.27 1258.5 1513.58 1184.44 1513.63 1183.7C1514.28 1175.48 1520.9 1168.97 1529.13 1168.5C1556.52 1166.93 1577.05 1157.88 1590.17 1141.61C1614.17 1111.84 1607.69 1065.7 1607.61 1065.24C1606.37 1057.36 1610.94 1049.73 1618.47 1047.1C1622.57 1045.65 1719.97 1009.64 1720.3 892.169C1720.47 833.556 1700.38 788.995 1660.59 759.725C1630.84 737.835 1601.37 733.053 1601.07 733.007C1596.52 732.3 1592.47 729.719 1589.91 725.89C1587.35 722.062 1586.5 717.335 1587.58 712.856C1594 686.258 1591.81 666.279 1581.07 653.475C1563.38 632.378 1526.75 634.372 1526.38 634.394C1520.65 634.754 1515.14 632.098 1511.85 627.401C1508.56 622.704 1507.91 616.637 1510.2 611.377C1511.57 608.163 1543.48 530.65 1474.29 471.654C1404.38 412.04 1336.11 445.66 1333.24 447.12C1328.92 449.316 1323.82 449.521 1319.36 447.646C1314.89 445.774 1311.44 442.049 1309.98 437.432C1283.95 355.062 1194.99 332.646 1189.13 331.256C1183.35 330.357 1092.39 317.507 1037.18 384.057C1034.07 387.806 1029.46 389.986 1024.59 390.015C1019.71 389.943 1015.09 387.919 1011.93 384.207C1009.87 381.83 959.312 324.959 872.089 353.828C785.77 382.399 786.115 466.222 786.172 469.777C786.264 475.51 783.371 480.908 778.532 483.984C773.691 487.056 767.605 487.429 762.453 484.91C762.172 484.776 728.987 469.12 704.658 481.998C689.888 489.812 680.329 507.493 676.246 534.547C675.559 539.103 672.996 543.163 669.18 545.742C665.36 548.322 660.634 549.182 656.156 548.128C651.388 547.036 537.439 522.516 485.733 650.619C441.768 759.551 518.42 829.612 521.704 832.54C527.624 837.82 528.984 846.604 524.885 853.395C524.669 853.759 501.094 893.95 512.308 930.877C518.362 950.817 533.96 966.88 558.666 978.621C566.132 982.169 569.816 990.697 567.279 998.564C567.062 999.25 544.992 1070.22 578.07 1112.52C597.727 1137.65 634.161 1148.68 686.327 1145.28C692.931 1144.85 699.135 1148.4 702.113 1154.3C704.373 1158.71 759.269 1262.77 877.05 1213.23C885.177 1209.8 894.555 1213.38 898.333 1221.35C899.493 1223.75 928.23 1281.56 1000.44 1295.68C1072.64 1309.81 1121.05 1267.1 1123.07 1265.27C1126.23 1262.43 1130.2 1261.01 1134.17 1261.01Z" fill="#390175"/>
<path d="M1185.15 1507.51C1184.49 1550.29 1155.01 1587.43 1113.29 1597.42C1075.3 1606.52 1019.85 1609.97 941.892 1594.72C864.03 1579.49 813.972 1555.39 782.113 1532.62C747.336 1507.66 734.027 1462.15 749.537 1422.28C751.353 1417.67 753.053 1413.13 754.751 1408.59L754.983 1407.93C841.757 1178.02 815.544 1071.96 815.544 1071.96C849.891 1069.05 877.175 1062.32 898.169 1054.56L898.5 1054.42C938.771 1039.37 956.243 1020.58 957.798 1018.85L957.915 1018.78C957.915 1018.78 958.036 1019.71 958.121 1021.35C962.391 1090.25 958.841 1198.59 958.841 1198.59C984.704 1089.74 992.578 1026.17 992.578 1026.17C1024.18 1037.83 1049.98 1042.27 1049.98 1042.27C1049.98 1042.27 1075.56 1047.88 1109.22 1048.99C1109.22 1048.99 1092.65 1110.87 1075.49 1221.42C1075.49 1221.42 1111.88 1114.73 1142.04 1052.87C1142.04 1052.87 1154.7 1087.71 1203.45 1125.24C1217.72 1136.25 1235.01 1147.44 1256.04 1158.15C1256.04 1158.15 1189.05 1250.13 1185.15 1507.51Z" fill="#89EA7F"/>
<g opacity="0.25">
<path d="M1185.15 1507.51C1184.49 1550.29 1155.01 1587.43 1113.29 1597.42C1075.3 1606.52 1019.85 1609.97 941.892 1594.72C864.03 1579.49 813.972 1555.39 782.113 1532.62C747.336 1507.66 734.027 1462.15 749.537 1422.28C751.353 1417.67 753.053 1413.13 754.751 1408.59L754.983 1407.93L755.119 1407.75C755.119 1407.75 771.975 1465.72 838.4 1467.87C904.825 1470.01 898.169 1054.56 898.169 1054.56L898.5 1054.42L957.798 1018.85L957.915 1018.78C957.915 1018.78 958.036 1019.71 958.121 1021.35C959.537 1037.96 966.655 1129.63 958.842 1198.59C950.355 1274.63 906.127 1435.88 956.003 1458.32C1005.78 1480.73 1049.98 1042.27 1049.98 1042.27L1109.22 1048.99L1075.49 1221.42C1075.49 1221.42 1013.16 1480.35 1053.52 1495.45C1093.95 1510.66 1129.82 1245.94 1201.27 1128.57C1202.01 1127.39 1202.73 1126.32 1203.45 1125.24C1217.73 1136.25 1235.01 1147.44 1256.04 1158.15C1256.04 1158.15 1189.05 1250.13 1185.15 1507.51Z" fill="#390175"/>
</g>
<path d="M1114.76 1032.85C1159.54 1037.05 1205.46 1030.26 1247.85 1015.29C1262.41 1010.36 1276.3 1003.7 1290.1 996.652C1291.96 995.595 1294.37 996.293 1295.34 998.217C1296.21 999.921 1295.66 1001.98 1294.14 1003.04C1268.21 1021.6 1239.41 1036.73 1209.13 1047.06C1178.2 1057.74 1145.55 1064.78 1112.68 1065.75C1103.2 1066.15 1095.16 1058.53 1095.3 1049C1095.31 1038.86 1104.82 1031.01 1114.76 1032.85Z" fill="#390175"/>
<path d="M983.129 1040.4C945.669 1023.76 912.121 999.002 883.22 970.207C877.701 964.34 872.049 958.665 866.987 952.43C856.404 940.411 847.318 927.206 838.689 913.926C837.552 912.174 838.049 909.835 839.798 908.698C841.403 907.656 843.504 907.986 844.718 909.397C863.322 931.636 884.637 951.077 908.397 967.541C934.699 985.273 963.169 1000.24 993.599 1009.14C1002.55 1011.06 1008.25 1019.87 1006.34 1028.82C1004.25 1039.14 992.618 1044.85 983.129 1040.4Z" fill="#390175"/>
<path d="M1261.41 1142.61C1292.74 1152.55 1327.34 1149.44 1359.55 1144.09C1364.6 1143.21 1369.63 1142.1 1374.81 1141.28C1377.09 1140.87 1378.36 1144.08 1376.36 1145.31C1371.98 1148.16 1367.49 1150.89 1362.93 1153.56C1331.89 1170.31 1295.87 1180.26 1260.36 1175.78C1258.18 1175.51 1255.71 1175.04 1253.5 1174.54C1230.22 1169.52 1238.49 1136.04 1261.41 1142.61Z" fill="#390175"/>
<path d="M814.651 1088.46C791.912 1085.44 770.883 1073.87 752.737 1060.63L746.34 1055.67C736.018 1047.25 726.659 1037.68 718.24 1027.42C715.018 1023.23 711.888 1019.01 708.902 1014.72C707.518 1012.77 709.993 1010.23 711.972 1011.64C724.724 1019.77 737.544 1028.04 751.021 1034.81C771.479 1045.19 793.694 1053.9 816.4 1055.54C838.117 1057.43 836.5 1088.86 814.651 1088.46Z" fill="#390175"/>
<path d="M945.086 1578.58C996.289 1588.41 1050.55 1593.28 1101.69 1583.11C1137.97 1577.75 1166.56 1547.53 1168.51 1510.69C1169.77 1443.35 1174.51 1376.23 1187.08 1309.63C1196.48 1261.42 1209.17 1212.96 1231.09 1168.54C1234.6 1161.64 1238.21 1154.97 1242.69 1148.49L1248.56 1172.89C1211.71 1154.13 1176.57 1129.25 1150.1 1096.64C1140.84 1085.05 1132.16 1072.41 1126.57 1058.49C1126.56 1058.48 1156.88 1060.11 1156.88 1060.11C1142.22 1085.89 1129.04 1113.04 1116.4 1140.05C1103.69 1167.36 1091.46 1195.02 1079.73 1222.83C1078.78 1225.11 1076.16 1226.19 1073.88 1225.24C1072.04 1224.47 1070.99 1222.6 1071.14 1220.72C1072.43 1206.07 1073.77 1191.42 1075.28 1176.78C1079.94 1132.55 1085.25 1088.59 1093.34 1044.75C1093.34 1044.75 1108.68 1065.5 1108.68 1065.5C1087.91 1064.7 1067.26 1062.53 1046.86 1058.44C1026.42 1054.54 1006.47 1048.77 986.924 1041.68L1008.96 1028.24C1006.12 1043.18 1002.9 1057.34 999.481 1071.99C989.321 1115.04 977.595 1157.66 964.963 1200.01C962.999 1206.93 952.862 1205.61 952.633 1198.52C951.818 1168.57 950.566 1138.56 948.873 1108.68C947.132 1078.88 945.008 1049.03 941.451 1019.92L970.363 1029.59C960.18 1040.51 947.535 1048.83 934.687 1056.01C898.386 1075.76 857.632 1084.95 816.888 1088.43L831.525 1068.04C832.4 1072.17 833.084 1075.94 833.565 1080C844.621 1193.84 805.223 1321.83 765.245 1427.35C750.678 1463.06 765.201 1504.23 798.324 1523.75C841.863 1552.45 893.953 1568.38 945.086 1578.58ZM938.755 1610.93C882.987 1599.71 828.263 1582.87 780.057 1551.2C752.853 1534.47 733.057 1506.12 728.114 1474.43C724.83 1454.66 727.129 1434.04 734.514 1415.41C766.939 1330.78 793.779 1242.88 801.348 1152.54C803.111 1126.69 804.079 1100.66 799.376 1075.22C797.395 1065.66 804.436 1056.32 814.163 1055.58C826.486 1054.55 838.709 1052.92 850.727 1050.58C880.047 1044.82 909.14 1035.04 933.601 1017.9C937.726 1014.91 941.658 1011.86 945.185 1008.28C945.316 1008.15 945.622 1007.81 945.428 1008.03C945.427 1008.03 974.35 1017.7 974.339 1017.71C974.577 1048.42 973.268 1078.55 971.606 1108.68C969.887 1138.79 967.723 1168.76 965.127 1198.78L952.793 1197.13C957.84 1168.33 962.48 1139.47 966.507 1110.53C969.498 1088.89 972.218 1067.24 974.38 1045.54C975.089 1038.39 975.778 1031.02 976.245 1024.17C976.789 1013.99 987.47 1006.92 997.05 1010.3C1015.3 1016.93 1034.1 1022.47 1053.19 1026.08C1072.2 1029.91 1091.67 1031.91 1111.05 1032.6C1119.64 1032.92 1126.35 1040.14 1126.04 1048.73C1124.72 1057.21 1120.83 1065.18 1118.62 1073.76C1107.97 1108.61 1098.63 1143.88 1089.96 1179.31C1086.49 1193.53 1083.17 1207.79 1079.92 1222.07L1071.33 1219.96C1079.33 1190.66 1087.82 1161.55 1096.89 1132.5C1106.11 1103.2 1115.66 1074.31 1127.25 1045.66C1127.25 1045.66 1157.57 1047.29 1157.57 1047.28C1158.47 1049.6 1159.65 1051.73 1160.81 1053.95C1183.81 1094.2 1222.6 1122.38 1263.47 1143.49C1271.58 1147.61 1274.81 1157.54 1270.69 1165.66C1256.38 1187.98 1247.02 1212.89 1238.79 1238.13C1211.75 1324.66 1203.49 1416.2 1201.62 1506.81C1201.44 1526.83 1195.81 1546.81 1185.31 1563.88C1168.78 1591.36 1139.77 1610.19 1108.27 1615.41C1051.68 1626.59 994.638 1621.56 938.755 1610.93Z" fill="#390175"/>
<g opacity="0.25">
<path d="M1024.15 1902.39C1258 1902.39 1447.58 1886.31 1447.58 1866.48C1447.58 1846.64 1258 1830.56 1024.15 1830.56C790.292 1830.56 600.716 1846.64 600.716 1866.48C600.716 1886.31 790.292 1902.39 1024.15 1902.39Z" fill="#390175"/>
</g>
</svg>
