<svg width="4144" height="4144" viewBox="0 0 4144 4144" fill="none" xmlns="http://www.w3.org/2000/svg">
<path d="M1963.28 2582.59C2124.37 2614.1 2232.75 2514.89 2232.75 2514.89C2435.19 2717.04 2639.72 2538.73 2639.72 2538.73C2984.26 2705.79 3012.17 2332.76 3012.17 2332.76C3232.91 2320.12 3196.87 2092.02 3196.87 2092.02C3196.87 2092.02 3418.39 2014.82 3419.11 1756.46C3419.97 1451.87 3156.93 1410.97 3156.93 1410.97C3207.2 1202.54 3002.81 1216.52 3002.81 1216.52C3002.81 1216.52 3080.49 1037.76 2923.42 903.828C2766.35 769.892 2609.83 851.37 2609.83 851.37C2550.49 663.6 2347.22 620.271 2347.22 620.271C2347.22 620.271 2142.61 583.796 2016.87 735.353C2016.87 735.353 1902.6 600.896 1706.64 665.757C1510.67 730.619 1515.25 925.467 1515.25 925.467C1515.25 925.467 1331.2 835.481 1299.21 1047.49C1299.21 1047.49 1040.15 986.241 926.151 1268.69C829.453 1508.27 1005.53 1663.26 1005.53 1663.26C1005.53 1663.26 886.188 1860.96 1085.89 1955.86C1085.89 1955.86 971.151 2311.9 1353.25 2287.02C1353.25 2287.02 1475.48 2529.27 1739.19 2418.32C1739.19 2418.32 1802.18 2551.07 1963.28 2582.59Z" fill="#16B768"/>
<g opacity="0.25">
<path d="M3419.11 1756.46C3419.52 1613.02 3361.39 1528.09 3299.78 1478.34C3303.8 1500.53 3306.07 1524.72 3306 1551.26C3305.36 1779.02 3110.08 1847.08 3110.08 1847.08C3110.08 1847.08 3141.84 2048.17 2947.24 2059.31C2947.24 2059.31 2925.67 2347.02 2674.24 2263.6C2685.26 2259.82 2696.45 2255.64 2707.92 2250.76C2707.92 2250.76 2417.72 2193.98 2543.72 1968.34C2543.72 1968.34 2436.8 2060.11 2234.08 2065.52C2234.08 2065.52 2329.93 2280.06 2542.17 2285.56C2473.04 2313.21 2366.27 2325.86 2260.13 2219.87C2260.13 2219.87 2164.58 2307.34 2022.57 2279.55C1880.55 2251.77 1825.01 2134.74 1825.01 2134.74C1686.76 2192.91 1592.63 2140.95 1539.02 2089.28C1737.67 2164.18 1907.32 2001.59 1907.32 2001.59C1721.58 1920.17 1657.13 1794.87 1657.13 1794.87C1688.8 2051.37 1398.6 1994.59 1398.6 1994.59C1407.39 2003.43 1416.17 2011.52 1424.96 2019.17C1160.64 2001.67 1249.08 1727.05 1249.08 1727.05C1073.03 1643.39 1178.24 1469.11 1178.24 1469.11C1178.24 1469.11 1023.01 1332.47 1108.26 1121.26C1118.19 1096.64 1129.41 1075.1 1141.51 1056.06C1065.69 1078.92 979.837 1135.68 926.15 1268.69C829.452 1508.27 1005.53 1663.27 1005.53 1663.27C1005.53 1663.27 886.187 1860.96 1085.89 1955.87C1085.89 1955.87 971.15 2311.91 1353.25 2287.02C1353.25 2287.02 1475.48 2529.27 1739.19 2418.32C1739.19 2418.32 1802.18 2551.07 1963.28 2582.59C2124.37 2614.11 2232.75 2514.89 2232.75 2514.89C2435.19 2717.04 2639.72 2538.73 2639.72 2538.73C2984.26 2705.79 3012.17 2332.76 3012.17 2332.76C3232.91 2320.12 3196.88 2092.02 3196.88 2092.02C3196.88 2092.02 3418.38 2014.82 3419.11 1756.46Z" fill="#390175"/>
</g>
<g opacity="0.6">
<path d="M1070.65 2042.43C1067.79 2084.63 1071.26 2135.72 1093.8 2180.44C1093.12 2117.43 1109.87 2065.22 1109.87 2065.22C1095.02 2058.17 1082.14 2050.49 1070.65 2042.43Z" fill="white"/>
</g>
<g opacity="0.6">
<path d="M950.127 1378.04C1028.86 1182.98 1176.77 1151.85 1260.76 1151.25C1295.56 1151 1325.68 1129.46 1338.84 1097.25C1367.65 1026.79 1421.76 1013.26 1466.49 1016.23C1504.93 1018.77 1540.61 993.73 1551.68 956.837C1570.23 895.016 1616.3 812.948 1730.62 775.113C1851.24 735.188 1940.91 770.784 1992.03 804.055C2021.16 823.013 2059.49 821.367 2086.69 799.728C2210.74 701.023 2371.19 729.628 2371.19 729.628C2371.19 729.628 2530.6 763.607 2608.3 901.785C2625.34 932.078 2660.23 948.051 2694.35 941.469C2754.24 929.917 2850.71 930.741 2947.39 1013.19C2983.34 1043.84 3006.89 1076.83 3021.99 1109.5C3021.59 1048.21 3001.57 970.478 2923.41 903.831C2766.34 769.896 2609.83 851.373 2609.83 851.373C2550.48 663.604 2347.22 620.274 2347.22 620.274C2347.22 620.274 2142.61 583.796 2016.87 735.353C2016.87 735.353 1902.6 600.897 1706.64 665.757C1510.67 730.619 1515.25 925.468 1515.25 925.468C1515.25 925.468 1331.2 835.481 1299.21 1047.49C1299.21 1047.49 1040.15 986.242 926.149 1268.69C881.998 1378.08 894.761 1469.75 921.618 1537.17C919.264 1489.82 926.544 1436.47 950.127 1378.04Z" fill="white"/>
</g>
<path d="M1254.31 1522.27C1233.83 1470.53 1226.06 1410.39 1251.01 1358.57C1288.11 1286.34 1367.83 1270.81 1434.61 1305.34C1422.56 1300.42 1415.22 1311.75 1415.8 1317.53C1415.54 1314.94 1415.35 1312.08 1415.2 1309.49C1409.01 1188.23 1501.58 1143.01 1608.99 1169.99C1625.18 1174.12 1621.84 1197.83 1605.18 1197.31C1569.58 1196.66 1534.27 1197.2 1503.82 1213.7C1475.84 1229.29 1464.63 1257.21 1463.46 1290.05C1463.02 1299.26 1463.95 1308.67 1464.44 1317.91C1464.44 1328.11 1459.39 1338.52 1451.43 1344.84C1441.33 1353.54 1424.92 1355.34 1412.8 1348.71C1397.48 1340.81 1379.61 1335.17 1362.73 1335.06C1332.23 1334.01 1303.62 1352.21 1288.27 1378.39C1271.82 1406.19 1269.37 1444.87 1272.86 1478.14C1274.08 1490.07 1276.06 1502.89 1278.79 1514.34C1282.28 1529.63 1260.5 1536.77 1254.31 1522.27Z" fill="#390175"/>
<path d="M2083.35 1269.31C2159.54 1243.29 2247.38 1253.14 2314.33 1299.92C2373.33 1340.94 2410.96 1410.41 2423.01 1479.62C2425.09 1491.36 2417.25 1502.57 2405.5 1504.65C2394.97 1506.51 2384.85 1500.39 2381.39 1490.64C2369.79 1459.04 2356.4 1428.99 2339.16 1402.04C2335.79 1396.36 2329.3 1387.99 2325.51 1382.47C2291.08 1337.81 2242.9 1307.89 2187.27 1294.66C2154.81 1286.85 2119.99 1283.77 2086.51 1285.12C2077.46 1285.5 2074.77 1272.46 2083.35 1269.31Z" fill="#390175"/>
<path d="M2255.01 1542.99C2285.5 1499.9 2332.17 1468.98 2384.21 1458.33C2473 1439.36 2562.06 1493.94 2606.59 1568.07C2614.97 1581.74 2597.84 1597.01 2585.27 1587.23C2539.37 1551.49 2490.58 1516.75 2433.36 1510.9C2381.67 1504.87 2328.62 1527.16 2286.06 1556.58C2282.37 1559.01 2279.03 1561.6 2275.73 1563.74C2262.3 1572.84 2245.93 1556.25 2255.01 1542.99Z" fill="#390175"/>
<path d="M2918.75 1478.17C2964.79 1478.26 3013.87 1501 3031.53 1545.99C3048.89 1588.94 3038.92 1637.49 3025.07 1679.31L3015.34 1649.04C3064.62 1685.18 3094.7 1750.86 3063.13 1808.52C3054.21 1825.76 3042.31 1840.22 3029.39 1852.75C3023.75 1858.21 3014.75 1858.07 3009.29 1852.44C3004.16 1847.15 3003.98 1838.88 3008.63 1833.38C3021.26 1818.16 3030.8 1802.39 3035.73 1784.33C3046.23 1747.09 3020.77 1711.28 2989.97 1692.04C2989.37 1691.68 2988.43 1691.1 2988.35 1691.11L2978.62 1660.84C2986.5 1643.75 2993.04 1626.27 2996.85 1608.79C3011.03 1547.82 2976.84 1509.69 2917.38 1501.85C2902.73 1499.96 2903.93 1478.37 2918.75 1478.17Z" fill="#390175"/>
<path d="M2443.66 2643.76C2380.47 2643.76 2305.72 2623.61 2230.64 2557.4C2187.25 2587.34 2088.31 2640.12 1957.04 2614.43C1825.76 2588.74 1754.02 2502.58 1725.12 2458.49C1588.6 2506.21 1488.94 2465.13 1428.11 2420.42C1380.81 2385.66 1350.22 2344.03 1335.21 2320.4C1220.06 2324.21 1136.5 2293.79 1086.68 2229.86C1019.98 2144.28 1036.21 2025.24 1048 1972.58C995.61 1942.14 961.449 1901.3 946.298 1850.91C924.318 1777.8 949.614 1705.12 966.014 1669.31C948.585 1650.03 921.779 1616.02 900.154 1569.5C868.31 1501 841.752 1391.1 896.058 1256.55C960.042 1098.02 1068.09 1040.8 1147.47 1020.72C1198.51 1007.8 1244.17 1008.32 1273.38 1011C1287.8 953.184 1315.95 912.991 1357.31 891.293C1402.19 867.753 1451.77 872.639 1486.18 881.226C1499.27 799.497 1552.89 682.468 1696.44 634.956C1856.78 581.877 1967.5 649.249 2015.27 689.104C2151.44 554.355 2344.31 586.796 2352.91 588.329C2353.27 588.392 2353.62 588.463 2353.98 588.539C2362.53 590.363 2553.4 633.01 2628.74 809.135C2688 790.224 2815.94 769.546 2944.47 879.14C3059.53 977.252 3065.08 1105.86 3046.41 1186.5C3081.52 1191.51 3129.28 1205.67 3161.98 1244.39C3192.11 1280.08 3203.04 1327.92 3194.61 1386.9C3222.67 1395.43 3265.16 1412.16 3307.57 1443.36C3373.52 1491.88 3452.04 1585.6 3451.56 1756.55C3451.15 1901.65 3385.13 1993.43 3329.82 2044.89C3292.25 2079.83 3254.61 2101.22 3231.2 2112.51C3232.89 2151.86 3228.93 2228.71 3181.01 2288.15C3147.99 2329.12 3100.96 2354.07 3040.96 2362.52C3032.03 2415.74 3002.2 2532.12 2908.16 2586.25C2837.93 2626.68 2749.07 2623.36 2643.84 2576.44C2621.03 2592.67 2577 2619.7 2520.09 2634.08C2497.57 2639.77 2471.75 2643.75 2443.66 2643.76ZM2232.78 2482.48C2241.09 2482.48 2249.38 2485.64 2255.68 2491.93C2433.66 2669.66 2611 2520.64 2618.46 2514.21C2628.27 2505.76 2642.23 2503.89 2653.87 2509.53C2746.49 2554.44 2821.09 2561.37 2875.58 2530.12C2967.28 2477.54 2979.7 2331.75 2979.81 2330.28C2981.08 2314.1 2994.11 2301.29 3010.31 2300.36C3064.23 2297.28 3104.66 2279.46 3130.49 2247.42C3177.73 2188.81 3164.97 2097.98 3164.82 2097.08C3162.37 2081.58 3171.37 2066.54 3186.19 2061.38C3194.26 2058.51 3386.01 1987.62 3386.66 1756.37C3386.99 1640.98 3347.44 1553.25 3269.11 1495.63C3210.54 1452.54 3152.53 1443.12 3151.95 1443.03C3142.98 1441.64 3135.02 1436.56 3129.97 1429.02C3124.93 1421.48 3123.26 1412.18 3125.39 1403.36C3138.02 1351 3133.71 1311.67 3112.57 1286.46C3077.75 1244.93 3005.63 1248.85 3004.91 1248.9C2993.61 1249.61 2982.77 1244.38 2976.29 1235.13C2969.81 1225.88 2968.55 1213.94 2973.05 1203.59C2975.74 1197.26 3038.56 1044.66 2902.36 928.519C2764.72 811.16 2630.33 877.347 2624.68 880.222C2616.18 884.544 2606.14 884.947 2597.35 881.257C2588.56 877.572 2581.77 870.239 2578.89 861.149C2527.64 698.991 2352.52 654.862 2340.97 652.126C2329.6 650.355 2150.53 625.059 2041.84 756.072C2035.72 763.452 2026.65 767.744 2017.06 767.802C2007.44 767.661 1998.35 763.675 1992.14 756.368C1988.09 751.689 1888.55 639.729 1716.84 696.563C1546.9 752.807 1547.58 917.826 1547.69 924.825C1547.88 936.11 1542.18 946.738 1532.65 952.794C1523.12 958.841 1511.14 959.574 1501 954.617C1500.45 954.352 1435.12 923.532 1387.22 948.883C1358.15 964.266 1339.33 999.074 1331.29 1052.33C1329.94 1061.3 1324.89 1069.3 1317.38 1074.37C1309.86 1079.45 1300.55 1081.14 1291.74 1079.07C1282.35 1076.92 1058.03 1028.65 956.237 1280.84C869.685 1495.29 1020.59 1633.21 1027.05 1638.98C1038.71 1649.37 1041.38 1666.66 1033.31 1680.03C1032.89 1680.75 986.477 1759.87 1008.55 1832.57C1020.47 1871.82 1051.18 1903.44 1099.82 1926.56C1114.51 1933.54 1121.77 1950.33 1116.77 1965.82C1116.34 1967.17 1072.9 2106.89 1138.02 2190.16C1176.71 2239.63 1248.44 2261.34 1351.14 2254.64C1364.14 2253.81 1376.35 2260.79 1382.21 2272.4C1386.66 2281.09 1494.73 2485.95 1726.6 2388.41C1742.6 2381.66 1761.06 2388.73 1768.5 2404.41C1770.78 2409.13 1827.36 2522.93 1969.5 2550.74C2111.66 2578.54 2206.94 2494.47 2210.93 2490.87C2217.14 2485.27 2224.97 2482.48 2232.78 2482.48Z" fill="#390175"/>
<path d="M2333.14 2967.76C2331.84 3051.97 2273.81 3125.08 2191.68 3144.76C2116.89 3162.67 2007.73 3169.47 1854.25 3139.44C1700.97 3109.45 1602.42 3062.01 1539.7 3017.19C1471.24 2968.05 1445.04 2878.46 1475.57 2799.97C1479.15 2790.88 1482.49 2781.95 1485.84 2773.02L1486.29 2771.71C1657.12 2319.1 1605.52 2110.32 1605.52 2110.32C1673.14 2104.58 1726.85 2091.32 1768.18 2076.05L1768.83 2075.78C1848.11 2046.16 1882.5 2009.16 1885.57 2005.76L1885.8 2005.61C1885.8 2005.61 1886.03 2007.45 1886.2 2010.68C1894.61 2146.31 1887.62 2359.61 1887.62 2359.61C1938.53 2145.32 1954.04 2020.16 1954.04 2020.16C2016.24 2043.11 2067.05 2051.86 2067.05 2051.86C2067.05 2051.86 2117.4 2062.91 2183.67 2065.09C2183.67 2065.09 2151.05 2186.9 2117.25 2404.54C2117.25 2404.54 2188.9 2194.51 2248.27 2072.73C2248.27 2072.73 2273.19 2141.31 2369.16 2215.2C2397.27 2236.87 2431.3 2258.91 2472.7 2279.99C2472.7 2279.99 2340.83 2461.06 2333.14 2967.76Z" fill="#89EA7F"/>
<g opacity="0.25">
<path d="M2333.14 2967.76C2331.84 3051.97 2273.81 3125.08 2191.68 3144.76C2116.89 3162.67 2007.73 3169.47 1854.25 3139.44C1700.97 3109.45 1602.42 3062.01 1539.7 3017.19C1471.24 2968.05 1445.04 2878.46 1475.57 2799.97C1479.15 2790.88 1482.49 2781.95 1485.84 2773.02L1486.29 2771.71L1486.56 2771.37C1486.56 2771.37 1519.75 2885.49 1650.51 2889.71C1781.28 2893.93 1768.18 2076.05 1768.18 2076.05L1768.83 2075.78L1885.57 2005.76L1885.8 2005.61C1885.8 2005.61 1886.03 2007.45 1886.2 2010.68C1888.99 2043.37 1903 2223.84 1887.62 2359.61C1870.91 2509.3 1783.84 2826.74 1882.03 2870.91C1980.03 2915.04 2067.05 2051.86 2067.05 2051.86L2183.67 2065.09L2117.25 2404.54C2117.25 2404.54 1994.55 2914.29 2074 2944.01C2153.61 2973.96 2224.22 2452.82 2364.88 2221.75C2366.34 2219.44 2367.75 2217.32 2369.16 2215.2C2397.27 2236.87 2431.3 2258.91 2472.7 2279.99C2472.7 2279.99 2340.83 2461.06 2333.14 2967.76Z" fill="#390175"/>
</g>
<path d="M2194.57 2033.32C2282.73 2041.58 2373.13 2028.21 2456.58 1998.75C2485.23 1989.04 2512.58 1975.93 2539.75 1962.06C2543.42 1959.97 2548.16 1961.35 2550.07 1965.14C2551.78 1968.49 2550.71 1972.53 2547.7 1974.62C2496.66 2011.18 2439.96 2040.95 2380.35 2061.29C2319.46 2082.32 2255.19 2096.18 2190.47 2098.09C2171.8 2098.87 2155.99 2083.87 2156.25 2065.1C2156.27 2045.15 2174.99 2029.68 2194.57 2033.32Z" fill="#390175"/>
<path d="M1935.43 2048.18C1861.69 2015.42 1795.64 1966.68 1738.75 1909.99C1727.88 1898.44 1716.76 1887.27 1706.79 1875C1685.96 1851.34 1668.07 1825.34 1651.08 1799.2C1648.84 1795.75 1649.82 1791.14 1653.27 1788.9C1656.42 1786.85 1660.56 1787.5 1662.95 1790.28C1699.58 1834.06 1741.54 1872.33 1788.31 1904.75C1840.09 1939.65 1896.14 1969.12 1956.04 1986.65C1973.66 1990.42 1984.89 2007.76 1981.12 2025.38C1977.02 2045.7 1954.11 2056.93 1935.43 2048.18Z" fill="#390175"/>
<path d="M2483.27 2249.4C2544.94 2268.96 2613.06 2262.84 2676.48 2252.31C2686.42 2250.58 2696.31 2248.4 2706.52 2246.77C2711.01 2245.98 2713.51 2252.29 2709.57 2254.72C2700.94 2260.32 2692.1 2265.7 2683.12 2270.95C2622.03 2303.93 2551.11 2323.51 2481.2 2314.7C2476.9 2314.16 2472.05 2313.24 2467.7 2312.25C2421.86 2302.37 2438.15 2236.47 2483.27 2249.4Z" fill="#390175"/>
<path d="M1603.76 2142.79C1558.99 2136.84 1517.6 2114.07 1481.87 2088L1469.28 2078.23C1448.96 2061.67 1430.53 2042.82 1413.96 2022.63C1407.62 2014.38 1401.46 2006.07 1395.58 1997.62C1392.85 1993.78 1397.73 1988.79 1401.62 1991.55C1426.72 2007.57 1451.96 2023.84 1478.49 2037.18C1518.77 2057.61 1562.5 2074.75 1607.2 2077.99C1649.96 2081.71 1646.77 2143.59 1603.76 2142.79Z" fill="#390175"/>
<path d="M1860.54 3107.67C1961.34 3127.01 2068.16 3136.61 2168.84 3116.58C2240.25 3106.04 2296.55 3046.54 2300.38 2974.01C2302.85 2841.44 2312.19 2709.32 2336.94 2578.2C2355.45 2483.29 2380.42 2387.88 2423.59 2300.44C2430.49 2286.86 2437.6 2273.73 2446.41 2260.96L2457.98 2309C2385.44 2272.08 2316.25 2223.1 2264.13 2158.9C2245.92 2136.09 2228.82 2111.19 2217.82 2083.79C2217.8 2083.77 2277.5 2086.99 2277.49 2086.98C2248.62 2137.73 2222.68 2191.18 2197.79 2244.36C2172.78 2298.12 2148.7 2352.58 2125.61 2407.31C2123.74 2411.8 2118.58 2413.93 2114.09 2412.05C2110.47 2410.55 2108.39 2406.87 2108.7 2403.16C2111.23 2374.33 2113.87 2345.49 2116.85 2316.67C2126.02 2229.58 2136.47 2143.04 2152.4 2056.75C2152.39 2056.74 2182.61 2097.6 2182.61 2097.6C2141.7 2096.02 2101.05 2091.74 2060.89 2083.69C2020.66 2076.01 1981.39 2064.65 1942.9 2050.7L1986.28 2024.25C1980.7 2053.66 1974.35 2081.54 1967.63 2110.38C1947.62 2195.13 1924.54 2279.02 1899.67 2362.4C1895.8 2376.02 1875.85 2373.42 1875.4 2359.47C1873.79 2300.51 1871.33 2241.42 1867.99 2182.6C1864.57 2123.92 1860.39 2065.17 1853.38 2007.87L1910.3 2026.91C1890.25 2048.39 1865.36 2064.78 1840.07 2078.91C1768.6 2117.79 1688.37 2135.88 1608.16 2142.73L1636.98 2102.59C1638.7 2110.73 1640.05 2118.15 1641 2126.13C1662.76 2350.24 1585.2 2602.21 1506.5 2809.94C1477.82 2880.24 1506.41 2961.3 1571.62 2999.73C1657.33 3056.22 1759.88 3087.58 1860.54 3107.67ZM1848.08 3171.36C1738.29 3149.27 1630.56 3116.12 1535.66 3053.76C1482.1 3020.82 1443.13 2965.02 1433.4 2902.63C1426.93 2863.71 1431.46 2823.11 1446 2786.45C1509.83 2619.84 1562.67 2446.8 1577.57 2268.94C1581.04 2218.06 1582.95 2166.82 1573.69 2116.72C1569.79 2097.9 1583.65 2079.53 1602.8 2078.05C1627.06 2076.05 1651.12 2072.83 1674.78 2068.23C1732.5 2056.88 1789.77 2037.62 1837.93 2003.89C1846.05 1997.99 1853.79 1991.99 1860.74 1984.94C1860.99 1984.68 1861.59 1984.01 1861.21 1984.45C1861.21 1984.46 1918.15 2003.49 1918.13 2003.51C1918.6 2063.97 1916.02 2123.28 1912.75 2182.59C1909.36 2241.87 1905.1 2300.88 1899.99 2359.96L1875.71 2356.72C1885.65 2300.03 1894.78 2243.21 1902.71 2186.25C1908.6 2143.64 1913.95 2101.03 1918.21 2058.3C1919.61 2044.21 1920.96 2029.72 1921.88 2016.23C1922.95 1996.19 1943.98 1982.26 1962.84 1988.93C1998.77 2001.97 2035.77 2012.88 2073.35 2020C2110.78 2027.52 2149.12 2031.47 2187.26 2032.83C2204.18 2033.45 2217.39 2047.66 2216.77 2064.58C2214.17 2081.27 2206.52 2096.96 2202.18 2113.85C2181.21 2182.46 2162.81 2251.9 2145.75 2321.65C2138.91 2349.63 2132.38 2377.7 2125.97 2405.83L2109.07 2401.67C2124.82 2343.99 2141.52 2286.69 2159.38 2229.49C2177.54 2171.82 2196.34 2114.95 2219.17 2058.53C2219.17 2058.53 2278.85 2061.74 2278.85 2061.73C2280.61 2066.28 2282.95 2070.48 2285.22 2074.86C2330.5 2154.09 2406.87 2209.57 2487.32 2251.12C2503.3 2259.25 2509.66 2278.79 2501.53 2294.77C2473.37 2338.71 2454.94 2387.75 2438.75 2437.43C2385.52 2607.8 2369.24 2787.99 2365.57 2966.37C2365.22 3005.79 2354.12 3045.13 2333.46 3078.73C2300.92 3132.82 2243.81 3169.89 2181.78 3180.18C2070.38 3202.18 1958.09 3192.28 1848.08 3171.36Z" fill="#390175"/>
<g opacity="0.25">
<path d="M2016.18 3745.14C2476.56 3745.14 2849.77 3713.48 2849.77 3674.43C2849.77 3635.38 2476.56 3603.72 2016.18 3603.72C1555.81 3603.72 1182.6 3635.38 1182.6 3674.43C1182.6 3713.48 1555.81 3745.14 2016.18 3745.14Z" fill="#390175"/>
</g>
</svg>
