<svg width="20" height="21" viewBox="0 0 20 21" fill="none" xmlns="http://www.w3.org/2000/svg">
<path fill-rule="evenodd" clip-rule="evenodd" d="M0.770386 11.484C0.823718 19.6485 9.99998 21 9.99998 21C9.99998 21 19.1772 19.7906 19.2296 11.484H0.770386Z" fill="#F4B093"/>
<ellipse cx="6.92339" cy="11.9423" rx="6.15322" ry="7.03723" fill="#F4B093"/>
<path d="M19.2298 11.812C19.2298 15.6266 16.4749 18.9795 13.0766 18.9795C9.67826 18.9795 6.92337 15.6266 6.92337 11.812C6.92337 7.99742 9.67826 4.90509 13.0766 4.90509C16.4749 4.90509 19.2298 7.99742 19.2298 11.812Z" fill="#FA8B8B"/>
<path d="M9.78136 2.29262C10.5124 3.55881 10.0516 5.19343 10.0516 5.19343C10.0516 5.19343 8.40565 4.77514 7.67461 3.50895C6.94357 2.24276 7.40433 0.608142 7.40433 0.608142C7.40433 0.608142 9.05033 1.02643 9.78136 2.29262Z" fill="#007349"/>
</svg>
