<svg width="42" height="47" viewBox="0 0 42 47" fill="none" xmlns="http://www.w3.org/2000/svg">
<path fill-rule="evenodd" clip-rule="evenodd" d="M0.000228882 24.5562C0.120646 42.9905 20.8395 46.0421 20.8395 46.0421C20.8395 46.0421 41.5603 43.3115 41.6787 24.5562H0.000228882Z" fill="#F4B093"/>
<ellipse cx="13.8932" cy="25.591" rx="13.8932" ry="15.8891" fill="#F4B093"/>
<path d="M41.6795 25.2968C41.6795 33.9096 35.4593 41.4802 27.7863 41.4802C20.1133 41.4802 13.8931 33.9096 13.8931 25.2968C13.8931 16.684 20.1133 9.7019 27.7863 9.7019C35.4593 9.7019 41.6795 16.684 41.6795 25.2968Z" fill="#FF8904"/>
<path d="M20.3461 3.80326C21.9967 6.66216 20.9564 10.3529 20.9564 10.3529C20.9564 10.3529 17.2399 9.40848 15.5894 6.54959C13.9388 3.69069 14.9791 -6.10352e-05 14.9791 -6.10352e-05C14.9791 -6.10352e-05 18.6955 0.944369 20.3461 3.80326Z" fill="#007349"/>
</svg>
